<?xml version="1.0" encoding="utf-8"?>
<!-- Generator: Adobe Illustrator 21.1.0, SVG Export Plug-In . SVG Version: 6.00 Build 0)  -->
<svg version="1.1" id="Layer_1" xmlns="http://www.w3.org/2000/svg" xmlns:xlink="http://www.w3.org/1999/xlink" x="0px" y="0px"
	 width="20px" height="20px" viewBox="0 0 20 20" style="enable-background:new 0 0 20 20;" xml:space="preserve">
<g>
	<path style="fill:#555D66;" d="M5.7,7c0-0.5-0.1-0.9-0.4-1.2C4.9,5.3,4.1,5.2,3.7,5.3c-0.2-1.1,0.7-2.4,1.9-3L4.7,1.1
		C2.9,1.9,1.2,3.8,1.5,6.3c0.2,1.5,1.1,2.5,2.3,2.5c0.5,0,1-0.2,1.4-0.5C5.5,8,5.7,7.6,5.7,7z M10.9,7c0-0.5-0.1-0.9-0.4-1.2
		c-0.4-0.5-1.2-0.6-1.6-0.5c-0.2-1.1,0.7-2.4,1.9-3L9.8,1.1C8.1,1.9,6.4,3.8,6.7,6.3C6.8,7.8,7.7,8.8,9,8.8c0.6,0,1-0.2,1.4-0.5
		C10.7,8,10.9,7.6,10.9,7z"/>
</g>
<rect x="9" y="15" style="fill:#555D66;" width="10" height="2"/>
</svg>
