<?xml version="1.0" encoding="utf-8"?>
<!-- Generator: Adobe Illustrator 21.1.0, SVG Export Plug-In . SVG Version: 6.00 Build 0)  -->
<svg version="1.1" id="Layer_1" xmlns="http://www.w3.org/2000/svg" xmlns:xlink="http://www.w3.org/1999/xlink" x="0px" y="0px"
	 width="20px" height="20px" viewBox="0 0 20 20" style="enable-background:new 0 0 20 20;" xml:space="preserve">
<style type="text/css">
	.st0{fill:#555D66;}
</style>
<rect x="9" y="15" class="st0" width="10" height="2"/>
<g>
	<path class="st0" d="M6.7,2.8c0,0.5,0.1,0.9,0.4,1.2c0.4,0.5,1.2,0.6,1.6,0.5c0.2,1.1-0.7,2.4-1.9,3l0.9,1.3C9.5,8,11.2,6,10.9,3.6
		c-0.2-1.5-1.1-2.5-2.3-2.5c-0.5,0-1,0.2-1.4,0.5C6.9,1.8,6.7,2.2,6.7,2.8z M1.5,2.8c0,0.5,0.1,0.9,0.4,1.2c0.4,0.5,1.2,0.6,1.6,0.5
		c0.2,1.1-0.7,2.4-1.9,3l0.9,1.3C4.3,8,6,6,5.7,3.6C5.5,2.1,4.6,1.1,3.4,1.1c-0.6,0-1,0.2-1.4,0.5C1.7,1.8,1.5,2.2,1.5,2.8z"/>
</g>
</svg>
